<svg xmlns="http://www.w3.org/2000/svg" xmlns:xlink="http://www.w3.org/1999/xlink" width="500" zoomAndPan="magnify" viewBox="0 0 375 374.999991" height="500" preserveAspectRatio="xMidYMid meet" version="1.0"><defs><clipPath id="2c689767b6"><path d="M 132.910156 88 L 205.21875 88 L 205.21875 298.328125 L 132.910156 298.328125 Z M 132.910156 88 " clip-rule="nonzero"/></clipPath><clipPath id="1f2b9c78d0"><path d="M 132.910156 116.140625 C 132.910156 100.609375 149.097656 88.015625 169.066406 88.015625 C 189.03125 88.015625 205.21875 100.609375 205.21875 116.140625 L 205.21875 270.203125 C 205.21875 285.738281 189.03125 298.328125 169.066406 298.328125 C 149.097656 298.328125 132.910156 285.738281 132.910156 270.203125 Z M 132.910156 116.140625 " clip-rule="nonzero"/></clipPath><clipPath id="b48724e3f2"><path d="M 243.589844 95.25 L 315.898438 95.25 L 315.898438 298.328125 L 243.589844 298.328125 Z M 243.589844 95.25 " clip-rule="nonzero"/></clipPath><clipPath id="978261430f"><path d="M 243.589844 123.640625 C 243.589844 108.109375 259.777344 95.515625 279.742188 95.515625 C 299.710938 95.515625 315.898438 108.109375 315.898438 123.640625 L 315.898438 270.203125 C 315.898438 285.738281 299.710938 298.328125 279.742188 298.328125 C 259.777344 298.328125 243.589844 285.738281 243.589844 270.203125 Z M 243.589844 123.640625 " clip-rule="nonzero"/></clipPath><clipPath id="44796a2224"><path d="M 18 61 L 206 61 L 206 326 L 18 326 Z M 18 61 " clip-rule="nonzero"/></clipPath><clipPath id="efbd09edfd"><path d="M 7.492188 301.164062 L 154.105469 48.90625 L 216.617188 85.242188 L 70.003906 337.5 Z M 7.492188 301.164062 " clip-rule="nonzero"/></clipPath><clipPath id="5ccd688779"><path d="M 139.867188 73.398438 C 147.675781 59.96875 167.996094 57.214844 185.257812 67.25 C 202.523438 77.28125 210.1875 96.304688 202.382812 109.734375 L 84.136719 313.183594 C 76.332031 326.609375 56.011719 329.363281 38.75 319.332031 C 21.484375 309.296875 13.816406 290.277344 21.625 276.847656 Z M 139.867188 73.398438 " clip-rule="nonzero"/></clipPath><clipPath id="8d7ca8465e"><path d="M 131 62 L 318 62 L 318 327 L 131 327 Z M 131 62 " clip-rule="nonzero"/></clipPath><clipPath id="cd5e2d5253"><path d="M 119.992188 302.765625 L 266.605469 50.507812 L 329.117188 86.839844 L 182.503906 339.097656 Z M 119.992188 302.765625 " clip-rule="nonzero"/></clipPath><clipPath id="81875c91fb"><path d="M 252.367188 75 C 260.175781 61.570312 280.496094 58.816406 297.757812 68.851562 C 315.023438 78.882812 322.6875 97.902344 314.882812 111.332031 L 196.636719 314.78125 C 188.832031 328.210938 168.511719 330.964844 151.25 320.929688 C 133.984375 310.898438 126.316406 291.878906 134.125 278.449219 Z M 252.367188 75 " clip-rule="nonzero"/></clipPath><clipPath id="5b2ea78a1b"><path d="M 239 171 L 364 171 L 364 327 L 239 327 Z M 239 171 " clip-rule="nonzero"/></clipPath><clipPath id="bf4ab8d2b8"><path d="M 228.917969 302.765625 L 312.515625 158.933594 L 375.03125 195.265625 L 291.433594 339.097656 Z M 228.917969 302.765625 " clip-rule="nonzero"/></clipPath><clipPath id="284a831131"><path d="M 298.351562 183.300781 C 306.15625 169.871094 326.480469 167.117188 343.742188 177.148438 C 361.003906 187.183594 368.671875 206.203125 360.867188 219.632812 L 305.566406 314.78125 C 297.761719 328.210938 277.4375 330.964844 260.175781 320.933594 C 242.914062 310.898438 235.246094 291.878906 243.050781 278.449219 Z M 298.351562 183.300781 " clip-rule="nonzero"/></clipPath></defs><g clip-path="url(#2c689767b6)"><g clip-path="url(#1f2b9c78d0)"><path fill="#d9d9d9" d="M 132.910156 298.328125 L 132.910156 87.90625 L 205.21875 87.90625 L 205.21875 298.328125 Z M 132.910156 298.328125 " fill-opacity="1" fill-rule="nonzero"/></g></g><g clip-path="url(#b48724e3f2)"><g clip-path="url(#978261430f)"><path fill="#d9d9d9" d="M 243.589844 298.328125 L 243.589844 95.53125 L 315.898438 95.53125 L 315.898438 298.328125 Z M 243.589844 298.328125 " fill-opacity="1" fill-rule="nonzero"/></g></g><g clip-path="url(#44796a2224)"><g clip-path="url(#efbd09edfd)"><g clip-path="url(#5ccd688779)"><path fill="#ffffff" d="M 7.492188 301.164062 L 153.960938 49.152344 L 216.476562 85.484375 L 70.003906 337.5 Z M 7.492188 301.164062 " fill-opacity="1" fill-rule="nonzero"/></g></g></g><g clip-path="url(#8d7ca8465e)"><g clip-path="url(#cd5e2d5253)"><g clip-path="url(#81875c91fb)"><path fill="#ffffff" d="M 119.992188 302.765625 L 266.460938 50.75 L 328.976562 87.085938 L 182.503906 339.097656 Z M 119.992188 302.765625 " fill-opacity="1" fill-rule="nonzero"/></g></g></g><g clip-path="url(#5b2ea78a1b)"><g clip-path="url(#bf4ab8d2b8)"><g clip-path="url(#284a831131)"><path fill="#ffffff" d="M 228.917969 302.765625 L 312.515625 158.933594 L 375.03125 195.265625 L 291.433594 339.097656 Z M 228.917969 302.765625 " fill-opacity="1" fill-rule="nonzero"/></g></g></g></svg>